<mxfile host="app.diagrams.net" modified="2021-12-10T05:58:29.268Z" agent="5.0 (Windows NT 10.0; Win64; x64) AppleWebKit/537.36 (KHTML, like Gecko) Chrome/96.0.4664.55 Safari/537.36 Edg/96.0.1054.43" etag="Gmbqj7F3VounwilLnMek" version="15.9.4" type="github">
  <diagram id="OD-SN1Z5Y4T-cWcp3sVv" name="Page-1">
    <mxGraphModel dx="3764" dy="2175" grid="1" gridSize="10" guides="1" tooltips="1" connect="1" arrows="1" fold="1" page="1" pageScale="1" pageWidth="1169" pageHeight="827" math="0" shadow="0">
      <root>
        <mxCell id="0" />
        <mxCell id="1" parent="0" />
        <mxCell id="8V52XcheYK7ap1yZx_XA-1" value="" style="rounded=0;whiteSpace=wrap;html=1;fontSize=24;strokeColor=none;strokeWidth=3;fillColor=none;" vertex="1" parent="1">
          <mxGeometry x="-420" y="-120" width="2030" height="1570" as="geometry" />
        </mxCell>
        <mxCell id="8V52XcheYK7ap1yZx_XA-2" value="" style="html=1;shadow=0;dashed=0;align=center;verticalAlign=middle;shape=mxgraph.arrows2.arrow;dy=0.72;dx=35.8;notch=0;fontSize=24;strokeColor=#82b366;strokeWidth=3;rotation=-90;fillColor=#d5e8d4;sketch=1;" vertex="1" parent="1">
          <mxGeometry x="875" y="1148.5" width="285" height="70" as="geometry" />
        </mxCell>
        <mxCell id="8V52XcheYK7ap1yZx_XA-3" value="" style="html=1;shadow=0;dashed=0;align=center;verticalAlign=middle;shape=mxgraph.arrows2.arrow;dy=0.72;dx=35.8;notch=0;fontSize=24;strokeColor=#82b366;strokeWidth=3;rotation=-90;fillColor=#d5e8d4;sketch=1;" vertex="1" parent="1">
          <mxGeometry x="270" y="1012.5" width="510" height="70" as="geometry" />
        </mxCell>
        <mxCell id="8V52XcheYK7ap1yZx_XA-4" value="" style="html=1;shadow=0;dashed=0;align=center;verticalAlign=middle;shape=mxgraph.arrows2.arrow;dy=0.72;dx=35.8;notch=0;fontSize=24;strokeColor=#82b366;strokeWidth=3;rotation=-90;fillColor=#d5e8d4;sketch=1;" vertex="1" parent="1">
          <mxGeometry x="672.5" y="1020" width="520" height="70" as="geometry" />
        </mxCell>
        <mxCell id="8V52XcheYK7ap1yZx_XA-5" value="" style="html=1;shadow=0;dashed=0;align=center;verticalAlign=middle;shape=mxgraph.arrows2.arrow;dy=0.72;dx=35.8;notch=0;fontSize=24;strokeColor=#82b366;strokeWidth=3;rotation=-90;fillColor=#d5e8d4;sketch=1;" vertex="1" parent="1">
          <mxGeometry x="672.5" y="1148.5" width="285" height="70" as="geometry" />
        </mxCell>
        <mxCell id="8V52XcheYK7ap1yZx_XA-6" style="edgeStyle=orthogonalEdgeStyle;curved=1;rounded=0;orthogonalLoop=1;jettySize=auto;html=1;fontSize=24;strokeColor=#d6b656;strokeWidth=3;shape=flexArrow;fillColor=#fff2cc;sketch=1;" edge="1" parent="1" target="8V52XcheYK7ap1yZx_XA-65">
          <mxGeometry relative="1" as="geometry">
            <mxPoint x="940" y="60" as="sourcePoint" />
            <mxPoint x="940" y="600" as="targetPoint" />
            <Array as="points">
              <mxPoint x="930" y="60" />
            </Array>
          </mxGeometry>
        </mxCell>
        <mxCell id="8V52XcheYK7ap1yZx_XA-7" style="edgeStyle=orthogonalEdgeStyle;rounded=0;orthogonalLoop=1;jettySize=auto;html=1;fontSize=24;curved=1;fillColor=#fff2cc;strokeColor=#FAD7AC;strokeWidth=5;" edge="1" parent="1" source="8V52XcheYK7ap1yZx_XA-9" target="8V52XcheYK7ap1yZx_XA-15">
          <mxGeometry relative="1" as="geometry" />
        </mxCell>
        <mxCell id="8V52XcheYK7ap1yZx_XA-8" style="edgeStyle=orthogonalEdgeStyle;curved=1;rounded=0;orthogonalLoop=1;jettySize=auto;html=1;fontSize=24;strokeColor=#d6b656;strokeWidth=3;shape=flexArrow;fillColor=#fff2cc;sketch=1;" edge="1" parent="1" target="8V52XcheYK7ap1yZx_XA-53">
          <mxGeometry relative="1" as="geometry">
            <mxPoint x="785" y="70" as="sourcePoint" />
            <Array as="points">
              <mxPoint x="830" y="70" />
            </Array>
          </mxGeometry>
        </mxCell>
        <mxCell id="8V52XcheYK7ap1yZx_XA-9" value="&lt;font style=&quot;font-size: 24px&quot;&gt;DPLC&lt;/font&gt;" style="rounded=0;whiteSpace=wrap;html=1;fillColor=#fff2cc;strokeColor=#d6b656;" vertex="1" parent="1">
          <mxGeometry x="80" y="-50" width="1040" height="130" as="geometry" />
        </mxCell>
        <mxCell id="8V52XcheYK7ap1yZx_XA-10" style="edgeStyle=orthogonalEdgeStyle;curved=1;rounded=0;sketch=1;orthogonalLoop=1;jettySize=auto;html=1;entryX=0;entryY=0.5;entryDx=0;entryDy=0;fontSize=24;strokeColor=default;strokeWidth=2;startArrow=classic;startFill=1;" edge="1" parent="1" source="8V52XcheYK7ap1yZx_XA-11" target="8V52XcheYK7ap1yZx_XA-91">
          <mxGeometry relative="1" as="geometry" />
        </mxCell>
        <mxCell id="8V52XcheYK7ap1yZx_XA-11" value="&lt;span style=&quot;font-size: 24px&quot;&gt;King of Computing Power (KCP)&lt;/span&gt;" style="rounded=0;whiteSpace=wrap;html=1;fillColor=#d5e8d4;strokeColor=#82b366;" vertex="1" parent="1">
          <mxGeometry x="80" y="1300" width="1040" height="130" as="geometry" />
        </mxCell>
        <mxCell id="8V52XcheYK7ap1yZx_XA-12" value="" style="shape=flexArrow;endArrow=classic;html=1;rounded=0;fontSize=24;endWidth=37.5;endSize=8.825;" edge="1" parent="1">
          <mxGeometry width="50" height="50" relative="1" as="geometry">
            <mxPoint x="1250" y="74" as="sourcePoint" />
            <mxPoint x="1250" y="1120" as="targetPoint" />
          </mxGeometry>
        </mxCell>
        <mxCell id="8V52XcheYK7ap1yZx_XA-13" style="edgeStyle=orthogonalEdgeStyle;curved=1;rounded=0;orthogonalLoop=1;jettySize=auto;html=1;entryX=0;entryY=0.5;entryDx=0;entryDy=0;fontSize=24;" edge="1" parent="1" source="8V52XcheYK7ap1yZx_XA-15" target="8V52XcheYK7ap1yZx_XA-30">
          <mxGeometry relative="1" as="geometry" />
        </mxCell>
        <mxCell id="8V52XcheYK7ap1yZx_XA-14" style="edgeStyle=orthogonalEdgeStyle;curved=1;rounded=0;orthogonalLoop=1;jettySize=auto;html=1;entryX=0;entryY=0.5;entryDx=0;entryDy=0;fontSize=24;" edge="1" parent="1" source="8V52XcheYK7ap1yZx_XA-15" target="8V52XcheYK7ap1yZx_XA-31">
          <mxGeometry relative="1" as="geometry" />
        </mxCell>
        <mxCell id="8V52XcheYK7ap1yZx_XA-15" value="蛋白质折叠预测" style="shape=ext;double=1;rounded=1;whiteSpace=wrap;html=1;fontSize=24;" vertex="1" parent="1">
          <mxGeometry x="-270" y="590" width="230" height="80" as="geometry" />
        </mxCell>
        <mxCell id="8V52XcheYK7ap1yZx_XA-16" value="" style="edgeStyle=orthogonalEdgeStyle;curved=1;rounded=0;orthogonalLoop=1;jettySize=auto;html=1;fontSize=24;entryX=0;entryY=0.5;entryDx=0;entryDy=0;" edge="1" parent="1" source="8V52XcheYK7ap1yZx_XA-20" target="8V52XcheYK7ap1yZx_XA-22">
          <mxGeometry relative="1" as="geometry" />
        </mxCell>
        <mxCell id="8V52XcheYK7ap1yZx_XA-17" value="" style="edgeStyle=orthogonalEdgeStyle;curved=1;rounded=0;orthogonalLoop=1;jettySize=auto;html=1;fontSize=24;entryX=0;entryY=0.5;entryDx=0;entryDy=0;" edge="1" parent="1" source="8V52XcheYK7ap1yZx_XA-20" target="8V52XcheYK7ap1yZx_XA-23">
          <mxGeometry relative="1" as="geometry" />
        </mxCell>
        <mxCell id="8V52XcheYK7ap1yZx_XA-18" value="" style="edgeStyle=orthogonalEdgeStyle;curved=1;rounded=0;orthogonalLoop=1;jettySize=auto;html=1;fontSize=24;" edge="1" parent="1" source="8V52XcheYK7ap1yZx_XA-20" target="8V52XcheYK7ap1yZx_XA-23">
          <mxGeometry relative="1" as="geometry" />
        </mxCell>
        <mxCell id="8V52XcheYK7ap1yZx_XA-19" value="" style="edgeStyle=orthogonalEdgeStyle;curved=1;rounded=0;orthogonalLoop=1;jettySize=auto;html=1;fontSize=24;entryX=0;entryY=0.5;entryDx=0;entryDy=0;" edge="1" parent="1" source="8V52XcheYK7ap1yZx_XA-20" target="8V52XcheYK7ap1yZx_XA-25">
          <mxGeometry relative="1" as="geometry" />
        </mxCell>
        <mxCell id="8V52XcheYK7ap1yZx_XA-20" value="编程框架选择" style="rounded=0;whiteSpace=wrap;html=1;fontSize=24;" vertex="1" parent="1">
          <mxGeometry x="325" y="220" width="120" height="60" as="geometry" />
        </mxCell>
        <mxCell id="8V52XcheYK7ap1yZx_XA-21" style="edgeStyle=orthogonalEdgeStyle;curved=1;rounded=0;orthogonalLoop=1;jettySize=auto;html=1;entryX=0.5;entryY=0;entryDx=0;entryDy=0;fontSize=24;" edge="1" parent="1" source="8V52XcheYK7ap1yZx_XA-22" target="8V52XcheYK7ap1yZx_XA-33">
          <mxGeometry relative="1" as="geometry" />
        </mxCell>
        <mxCell id="8V52XcheYK7ap1yZx_XA-22" value="Tensorflow" style="whiteSpace=wrap;html=1;rounded=0;fontSize=24;" vertex="1" parent="1">
          <mxGeometry x="525" y="140" width="120" height="60" as="geometry" />
        </mxCell>
        <mxCell id="8V52XcheYK7ap1yZx_XA-23" value="Pytorch" style="whiteSpace=wrap;html=1;rounded=0;fontSize=24;" vertex="1" parent="1">
          <mxGeometry x="525" y="220" width="120" height="60" as="geometry" />
        </mxCell>
        <mxCell id="8V52XcheYK7ap1yZx_XA-24" value="" style="edgeStyle=orthogonalEdgeStyle;curved=1;rounded=0;orthogonalLoop=1;jettySize=auto;html=1;fontSize=24;" edge="1" parent="1" source="8V52XcheYK7ap1yZx_XA-25" target="8V52XcheYK7ap1yZx_XA-33">
          <mxGeometry relative="1" as="geometry" />
        </mxCell>
        <mxCell id="8V52XcheYK7ap1yZx_XA-25" value="Jax" style="whiteSpace=wrap;html=1;rounded=0;fontSize=24;" vertex="1" parent="1">
          <mxGeometry x="525" y="300" width="120" height="60" as="geometry" />
        </mxCell>
        <mxCell id="8V52XcheYK7ap1yZx_XA-26" style="edgeStyle=orthogonalEdgeStyle;curved=1;rounded=0;orthogonalLoop=1;jettySize=auto;html=1;entryX=0;entryY=0.5;entryDx=0;entryDy=0;fontSize=24;" edge="1" parent="1" source="8V52XcheYK7ap1yZx_XA-30" target="8V52XcheYK7ap1yZx_XA-20">
          <mxGeometry relative="1" as="geometry" />
        </mxCell>
        <mxCell id="8V52XcheYK7ap1yZx_XA-27" value="" style="edgeStyle=orthogonalEdgeStyle;curved=1;rounded=0;orthogonalLoop=1;jettySize=auto;html=1;fontSize=24;" edge="1" parent="1" source="8V52XcheYK7ap1yZx_XA-30" target="8V52XcheYK7ap1yZx_XA-35">
          <mxGeometry relative="1" as="geometry" />
        </mxCell>
        <mxCell id="8V52XcheYK7ap1yZx_XA-28" value="" style="edgeStyle=orthogonalEdgeStyle;curved=1;rounded=0;orthogonalLoop=1;jettySize=auto;html=1;fontSize=15;entryX=0;entryY=0.5;entryDx=0;entryDy=0;" edge="1" parent="1" source="8V52XcheYK7ap1yZx_XA-30" target="8V52XcheYK7ap1yZx_XA-47">
          <mxGeometry relative="1" as="geometry" />
        </mxCell>
        <mxCell id="8V52XcheYK7ap1yZx_XA-29" value="" style="edgeStyle=orthogonalEdgeStyle;curved=1;rounded=0;orthogonalLoop=1;jettySize=auto;html=1;fontSize=15;entryX=0;entryY=0.5;entryDx=0;entryDy=0;" edge="1" parent="1" source="8V52XcheYK7ap1yZx_XA-30" target="8V52XcheYK7ap1yZx_XA-55">
          <mxGeometry relative="1" as="geometry" />
        </mxCell>
        <mxCell id="8V52XcheYK7ap1yZx_XA-30" value="技术路线" style="rounded=0;whiteSpace=wrap;html=1;fontSize=24;" vertex="1" parent="1">
          <mxGeometry x="100" y="384" width="120" height="60" as="geometry" />
        </mxCell>
        <mxCell id="8V52XcheYK7ap1yZx_XA-31" value="数据准备" style="rounded=0;whiteSpace=wrap;html=1;fontSize=24;" vertex="1" parent="1">
          <mxGeometry x="100" y="890" width="120" height="60" as="geometry" />
        </mxCell>
        <mxCell id="8V52XcheYK7ap1yZx_XA-32" value="" style="edgeStyle=orthogonalEdgeStyle;curved=1;rounded=0;orthogonalLoop=1;jettySize=auto;html=1;fontSize=18;" edge="1" parent="1" source="8V52XcheYK7ap1yZx_XA-33" target="8V52XcheYK7ap1yZx_XA-40">
          <mxGeometry relative="1" as="geometry" />
        </mxCell>
        <mxCell id="8V52XcheYK7ap1yZx_XA-33" value="新的编程范式" style="ellipse;whiteSpace=wrap;html=1;rounded=0;fontSize=18;" vertex="1" parent="1">
          <mxGeometry x="725" y="220" width="120" height="60" as="geometry" />
        </mxCell>
        <mxCell id="8V52XcheYK7ap1yZx_XA-34" value="" style="edgeStyle=orthogonalEdgeStyle;curved=1;rounded=0;orthogonalLoop=1;jettySize=auto;html=1;fontSize=24;" edge="1" parent="1" source="8V52XcheYK7ap1yZx_XA-35" target="8V52XcheYK7ap1yZx_XA-38">
          <mxGeometry relative="1" as="geometry" />
        </mxCell>
        <mxCell id="8V52XcheYK7ap1yZx_XA-35" value="数据读取" style="whiteSpace=wrap;html=1;rounded=0;fontSize=24;" vertex="1" parent="1">
          <mxGeometry x="325" y="384" width="120" height="60" as="geometry" />
        </mxCell>
        <mxCell id="8V52XcheYK7ap1yZx_XA-36" value="" style="edgeStyle=orthogonalEdgeStyle;curved=1;rounded=0;orthogonalLoop=1;jettySize=auto;html=1;fontSize=18;entryX=0;entryY=0.5;entryDx=0;entryDy=0;" edge="1" parent="1" source="8V52XcheYK7ap1yZx_XA-38" target="8V52XcheYK7ap1yZx_XA-42">
          <mxGeometry relative="1" as="geometry" />
        </mxCell>
        <mxCell id="8V52XcheYK7ap1yZx_XA-37" value="" style="edgeStyle=orthogonalEdgeStyle;curved=1;rounded=0;orthogonalLoop=1;jettySize=auto;html=1;fontSize=18;" edge="1" parent="1" source="8V52XcheYK7ap1yZx_XA-38" target="8V52XcheYK7ap1yZx_XA-44">
          <mxGeometry relative="1" as="geometry" />
        </mxCell>
        <mxCell id="8V52XcheYK7ap1yZx_XA-38" value="DataSystem类" style="ellipse;whiteSpace=wrap;html=1;rounded=0;fontSize=18;" vertex="1" parent="1">
          <mxGeometry x="525" y="384" width="120" height="60" as="geometry" />
        </mxCell>
        <mxCell id="8V52XcheYK7ap1yZx_XA-39" style="edgeStyle=orthogonalEdgeStyle;curved=1;rounded=0;orthogonalLoop=1;jettySize=auto;html=1;fontSize=24;entryX=0;entryY=0.5;entryDx=0;entryDy=0;strokeColor=#66B2FF;strokeWidth=3;" edge="1" parent="1" source="8V52XcheYK7ap1yZx_XA-40" target="8V52XcheYK7ap1yZx_XA-86">
          <mxGeometry relative="1" as="geometry" />
        </mxCell>
        <mxCell id="8V52XcheYK7ap1yZx_XA-40" value="实现前传" style="whiteSpace=wrap;html=1;rounded=0;fontSize=24;" vertex="1" parent="1">
          <mxGeometry x="925" y="220" width="120" height="60" as="geometry" />
        </mxCell>
        <mxCell id="8V52XcheYK7ap1yZx_XA-41" style="edgeStyle=orthogonalEdgeStyle;curved=1;rounded=0;orthogonalLoop=1;jettySize=auto;html=1;entryX=0;entryY=0.5;entryDx=0;entryDy=0;fontSize=24;strokeColor=#66B2FF;strokeWidth=3;" edge="1" parent="1" source="8V52XcheYK7ap1yZx_XA-42" target="8V52XcheYK7ap1yZx_XA-86">
          <mxGeometry relative="1" as="geometry" />
        </mxCell>
        <mxCell id="8V52XcheYK7ap1yZx_XA-42" value="建立蛋白结构标签的处理pipeline" style="whiteSpace=wrap;html=1;rounded=0;fontSize=15;" vertex="1" parent="1">
          <mxGeometry x="725" y="344" width="120" height="60" as="geometry" />
        </mxCell>
        <mxCell id="8V52XcheYK7ap1yZx_XA-43" style="edgeStyle=orthogonalEdgeStyle;curved=1;rounded=0;orthogonalLoop=1;jettySize=auto;html=1;entryX=0;entryY=0.5;entryDx=0;entryDy=0;fontSize=24;strokeColor=#99CCFF;" edge="1" parent="1" source="8V52XcheYK7ap1yZx_XA-44" target="8V52XcheYK7ap1yZx_XA-86">
          <mxGeometry relative="1" as="geometry">
            <Array as="points">
              <mxPoint x="1070" y="454" />
              <mxPoint x="1070" y="290" />
            </Array>
          </mxGeometry>
        </mxCell>
        <mxCell id="8V52XcheYK7ap1yZx_XA-44" value="实现异步读取" style="whiteSpace=wrap;html=1;rounded=0;fontSize=18;" vertex="1" parent="1">
          <mxGeometry x="725" y="424" width="120" height="60" as="geometry" />
        </mxCell>
        <mxCell id="8V52XcheYK7ap1yZx_XA-45" value="" style="edgeStyle=orthogonalEdgeStyle;curved=1;rounded=0;orthogonalLoop=1;jettySize=auto;html=1;fontSize=15;" edge="1" parent="1" source="8V52XcheYK7ap1yZx_XA-47" target="8V52XcheYK7ap1yZx_XA-49">
          <mxGeometry relative="1" as="geometry" />
        </mxCell>
        <mxCell id="8V52XcheYK7ap1yZx_XA-46" value="" style="edgeStyle=orthogonalEdgeStyle;curved=1;rounded=0;orthogonalLoop=1;jettySize=auto;html=1;fontSize=15;" edge="1" parent="1" source="8V52XcheYK7ap1yZx_XA-47" target="8V52XcheYK7ap1yZx_XA-51">
          <mxGeometry relative="1" as="geometry" />
        </mxCell>
        <mxCell id="8V52XcheYK7ap1yZx_XA-47" value="混合精度" style="whiteSpace=wrap;html=1;rounded=0;fontSize=24;" vertex="1" parent="1">
          <mxGeometry x="325" y="560" width="120" height="60" as="geometry" />
        </mxCell>
        <mxCell id="8V52XcheYK7ap1yZx_XA-48" style="edgeStyle=orthogonalEdgeStyle;curved=1;rounded=0;orthogonalLoop=1;jettySize=auto;html=1;entryX=0;entryY=0.5;entryDx=0;entryDy=0;fontSize=24;strokeColor=#99CCFF;" edge="1" parent="1" source="8V52XcheYK7ap1yZx_XA-49" target="8V52XcheYK7ap1yZx_XA-86">
          <mxGeometry relative="1" as="geometry">
            <Array as="points">
              <mxPoint x="1150" y="530" />
              <mxPoint x="1150" y="290" />
            </Array>
          </mxGeometry>
        </mxCell>
        <mxCell id="8V52XcheYK7ap1yZx_XA-49" value="单精度" style="whiteSpace=wrap;html=1;rounded=0;fontSize=24;" vertex="1" parent="1">
          <mxGeometry x="525" y="500" width="120" height="60" as="geometry" />
        </mxCell>
        <mxCell id="8V52XcheYK7ap1yZx_XA-50" value="" style="edgeStyle=orthogonalEdgeStyle;curved=1;rounded=0;orthogonalLoop=1;jettySize=auto;html=1;fontSize=15;" edge="1" parent="1" source="8V52XcheYK7ap1yZx_XA-51" target="8V52XcheYK7ap1yZx_XA-53">
          <mxGeometry relative="1" as="geometry" />
        </mxCell>
        <mxCell id="8V52XcheYK7ap1yZx_XA-51" value="JMP" style="ellipse;whiteSpace=wrap;html=1;rounded=0;fontSize=24;" vertex="1" parent="1">
          <mxGeometry x="525" y="610" width="120" height="60" as="geometry" />
        </mxCell>
        <mxCell id="8V52XcheYK7ap1yZx_XA-52" style="edgeStyle=orthogonalEdgeStyle;curved=1;rounded=0;orthogonalLoop=1;jettySize=auto;html=1;entryX=0;entryY=0.5;entryDx=0;entryDy=0;fontSize=24;strokeWidth=3;strokeColor=#0066CC;" edge="1" parent="1" source="8V52XcheYK7ap1yZx_XA-53" target="8V52XcheYK7ap1yZx_XA-84">
          <mxGeometry relative="1" as="geometry">
            <Array as="points">
              <mxPoint x="1190" y="640" />
              <mxPoint x="1190" y="900" />
            </Array>
          </mxGeometry>
        </mxCell>
        <mxCell id="8V52XcheYK7ap1yZx_XA-53" value="实现混合精度优化" style="whiteSpace=wrap;html=1;rounded=0;fontSize=24;" vertex="1" parent="1">
          <mxGeometry x="725" y="610" width="120" height="60" as="geometry" />
        </mxCell>
        <mxCell id="8V52XcheYK7ap1yZx_XA-54" value="" style="edgeStyle=orthogonalEdgeStyle;curved=1;rounded=0;orthogonalLoop=1;jettySize=auto;html=1;fontSize=15;" edge="1" parent="1" source="8V52XcheYK7ap1yZx_XA-55" target="8V52XcheYK7ap1yZx_XA-59">
          <mxGeometry relative="1" as="geometry" />
        </mxCell>
        <mxCell id="8V52XcheYK7ap1yZx_XA-55" value="并行训练" style="whiteSpace=wrap;html=1;rounded=0;fontSize=24;" vertex="1" parent="1">
          <mxGeometry x="325" y="730" width="120" height="60" as="geometry" />
        </mxCell>
        <mxCell id="8V52XcheYK7ap1yZx_XA-56" value="" style="edgeStyle=orthogonalEdgeStyle;curved=1;rounded=0;orthogonalLoop=1;jettySize=auto;html=1;fontSize=15;" edge="1" parent="1" source="8V52XcheYK7ap1yZx_XA-59" target="8V52XcheYK7ap1yZx_XA-61">
          <mxGeometry relative="1" as="geometry" />
        </mxCell>
        <mxCell id="8V52XcheYK7ap1yZx_XA-57" value="" style="edgeStyle=orthogonalEdgeStyle;curved=1;rounded=0;orthogonalLoop=1;jettySize=auto;html=1;fontSize=15;" edge="1" parent="1" source="8V52XcheYK7ap1yZx_XA-59" target="8V52XcheYK7ap1yZx_XA-63">
          <mxGeometry relative="1" as="geometry" />
        </mxCell>
        <mxCell id="8V52XcheYK7ap1yZx_XA-58" style="edgeStyle=orthogonalEdgeStyle;curved=1;rounded=0;orthogonalLoop=1;jettySize=auto;html=1;entryX=0;entryY=0.5;entryDx=0;entryDy=0;fontSize=24;strokeColor=#33FFFF;strokeWidth=3;" edge="1" parent="1" source="8V52XcheYK7ap1yZx_XA-59" target="8V52XcheYK7ap1yZx_XA-83">
          <mxGeometry relative="1" as="geometry">
            <Array as="points">
              <mxPoint x="585" y="680" />
              <mxPoint x="1000" y="680" />
              <mxPoint x="1000" y="510" />
            </Array>
          </mxGeometry>
        </mxCell>
        <mxCell id="8V52XcheYK7ap1yZx_XA-59" value="8 GPU" style="whiteSpace=wrap;html=1;rounded=0;fontSize=24;" vertex="1" parent="1">
          <mxGeometry x="525" y="730" width="120" height="60" as="geometry" />
        </mxCell>
        <mxCell id="8V52XcheYK7ap1yZx_XA-60" value="" style="edgeStyle=orthogonalEdgeStyle;curved=1;rounded=0;orthogonalLoop=1;jettySize=auto;html=1;fontSize=15;" edge="1" parent="1" source="8V52XcheYK7ap1yZx_XA-61" target="8V52XcheYK7ap1yZx_XA-65">
          <mxGeometry relative="1" as="geometry" />
        </mxCell>
        <mxCell id="8V52XcheYK7ap1yZx_XA-61" value="MPI4py" style="ellipse;whiteSpace=wrap;html=1;rounded=0;fontSize=24;" vertex="1" parent="1">
          <mxGeometry x="725" y="700" width="120" height="60" as="geometry" />
        </mxCell>
        <mxCell id="8V52XcheYK7ap1yZx_XA-62" style="edgeStyle=orthogonalEdgeStyle;curved=1;rounded=0;orthogonalLoop=1;jettySize=auto;html=1;entryX=0;entryY=0.5;entryDx=0;entryDy=0;fontSize=15;" edge="1" parent="1" source="8V52XcheYK7ap1yZx_XA-63" target="8V52XcheYK7ap1yZx_XA-65">
          <mxGeometry relative="1" as="geometry" />
        </mxCell>
        <mxCell id="8V52XcheYK7ap1yZx_XA-63" value="MPI4JAX" style="ellipse;whiteSpace=wrap;html=1;rounded=0;fontSize=24;" vertex="1" parent="1">
          <mxGeometry x="725" y="780" width="120" height="60" as="geometry" />
        </mxCell>
        <mxCell id="8V52XcheYK7ap1yZx_XA-64" style="edgeStyle=orthogonalEdgeStyle;curved=1;rounded=0;orthogonalLoop=1;jettySize=auto;html=1;entryX=0;entryY=0.5;entryDx=0;entryDy=0;fontSize=24;strokeWidth=3;strokeColor=#0066CC;" edge="1" parent="1" source="8V52XcheYK7ap1yZx_XA-65" target="8V52XcheYK7ap1yZx_XA-84">
          <mxGeometry relative="1" as="geometry" />
        </mxCell>
        <mxCell id="8V52XcheYK7ap1yZx_XA-65" value="128 GPU" style="whiteSpace=wrap;html=1;rounded=0;fontSize=24;" vertex="1" parent="1">
          <mxGeometry x="925" y="730" width="120" height="60" as="geometry" />
        </mxCell>
        <mxCell id="8V52XcheYK7ap1yZx_XA-66" value="" style="edgeStyle=orthogonalEdgeStyle;curved=1;rounded=0;orthogonalLoop=1;jettySize=auto;html=1;fontSize=15;exitX=1;exitY=0.5;exitDx=0;exitDy=0;" edge="1" parent="1" source="8V52XcheYK7ap1yZx_XA-31" target="8V52XcheYK7ap1yZx_XA-69">
          <mxGeometry relative="1" as="geometry">
            <mxPoint x="420" y="920" as="sourcePoint" />
          </mxGeometry>
        </mxCell>
        <mxCell id="8V52XcheYK7ap1yZx_XA-67" value="" style="edgeStyle=orthogonalEdgeStyle;curved=1;rounded=0;orthogonalLoop=1;jettySize=auto;html=1;fontSize=15;" edge="1" parent="1" source="8V52XcheYK7ap1yZx_XA-69" target="8V52XcheYK7ap1yZx_XA-71">
          <mxGeometry relative="1" as="geometry" />
        </mxCell>
        <mxCell id="8V52XcheYK7ap1yZx_XA-68" style="edgeStyle=orthogonalEdgeStyle;curved=1;rounded=0;orthogonalLoop=1;jettySize=auto;html=1;entryX=0;entryY=0.5;entryDx=0;entryDy=0;fontSize=24;strokeColor=#33FFFF;strokeWidth=3;" edge="1" parent="1" source="8V52XcheYK7ap1yZx_XA-69" target="8V52XcheYK7ap1yZx_XA-83">
          <mxGeometry relative="1" as="geometry">
            <Array as="points">
              <mxPoint x="385" y="870" />
              <mxPoint x="1110" y="870" />
              <mxPoint x="1110" y="510" />
            </Array>
          </mxGeometry>
        </mxCell>
        <mxCell id="8V52XcheYK7ap1yZx_XA-69" value="TrRosetta（12k）" style="whiteSpace=wrap;html=1;rounded=0;fontSize=24;" vertex="1" parent="1">
          <mxGeometry x="325" y="890" width="120" height="60" as="geometry" />
        </mxCell>
        <mxCell id="8V52XcheYK7ap1yZx_XA-70" style="edgeStyle=orthogonalEdgeStyle;curved=1;rounded=0;orthogonalLoop=1;jettySize=auto;html=1;entryX=0;entryY=0;entryDx=0;entryDy=0;fontSize=24;" edge="1" parent="1" source="8V52XcheYK7ap1yZx_XA-71" target="8V52XcheYK7ap1yZx_XA-79">
          <mxGeometry relative="1" as="geometry" />
        </mxCell>
        <mxCell id="8V52XcheYK7ap1yZx_XA-71" value="RCSB（11w）" style="rounded=0;whiteSpace=wrap;html=1;fontSize=24;" vertex="1" parent="1">
          <mxGeometry x="525" y="890" width="120" height="60" as="geometry" />
        </mxCell>
        <mxCell id="8V52XcheYK7ap1yZx_XA-72" value="" style="edgeStyle=orthogonalEdgeStyle;curved=1;rounded=0;orthogonalLoop=1;jettySize=auto;html=1;fontSize=24;" edge="1" parent="1" source="8V52XcheYK7ap1yZx_XA-73" target="8V52XcheYK7ap1yZx_XA-79">
          <mxGeometry relative="1" as="geometry" />
        </mxCell>
        <mxCell id="8V52XcheYK7ap1yZx_XA-73" value="Uniclust" style="rounded=0;whiteSpace=wrap;html=1;fontSize=24;" vertex="1" parent="1">
          <mxGeometry x="525" y="980" width="120" height="60" as="geometry" />
        </mxCell>
        <mxCell id="8V52XcheYK7ap1yZx_XA-74" style="edgeStyle=orthogonalEdgeStyle;curved=1;rounded=0;orthogonalLoop=1;jettySize=auto;html=1;entryX=0;entryY=1;entryDx=0;entryDy=0;fontSize=24;" edge="1" parent="1" source="8V52XcheYK7ap1yZx_XA-75" target="8V52XcheYK7ap1yZx_XA-79">
          <mxGeometry relative="1" as="geometry" />
        </mxCell>
        <mxCell id="8V52XcheYK7ap1yZx_XA-75" value="UniRef90" style="rounded=0;whiteSpace=wrap;html=1;fontSize=24;" vertex="1" parent="1">
          <mxGeometry x="525" y="1070" width="120" height="60" as="geometry" />
        </mxCell>
        <mxCell id="8V52XcheYK7ap1yZx_XA-76" style="edgeStyle=orthogonalEdgeStyle;curved=1;rounded=0;orthogonalLoop=1;jettySize=auto;html=1;entryX=0.5;entryY=1;entryDx=0;entryDy=0;fontSize=24;" edge="1" parent="1" source="8V52XcheYK7ap1yZx_XA-77" target="8V52XcheYK7ap1yZx_XA-79">
          <mxGeometry relative="1" as="geometry" />
        </mxCell>
        <mxCell id="8V52XcheYK7ap1yZx_XA-77" value="...." style="rounded=0;whiteSpace=wrap;html=1;fontSize=24;" vertex="1" parent="1">
          <mxGeometry x="525" y="1160" width="120" height="60" as="geometry" />
        </mxCell>
        <mxCell id="8V52XcheYK7ap1yZx_XA-78" value="" style="edgeStyle=orthogonalEdgeStyle;curved=1;rounded=0;orthogonalLoop=1;jettySize=auto;html=1;fontSize=24;" edge="1" parent="1" source="8V52XcheYK7ap1yZx_XA-79" target="8V52XcheYK7ap1yZx_XA-81">
          <mxGeometry relative="1" as="geometry" />
        </mxCell>
        <mxCell id="8V52XcheYK7ap1yZx_XA-79" value="搜索&amp;amp;切割" style="ellipse;whiteSpace=wrap;html=1;rounded=0;fontSize=24;" vertex="1" parent="1">
          <mxGeometry x="755" y="980" width="120" height="60" as="geometry" />
        </mxCell>
        <mxCell id="8V52XcheYK7ap1yZx_XA-80" style="edgeStyle=orthogonalEdgeStyle;curved=1;rounded=0;orthogonalLoop=1;jettySize=auto;html=1;entryX=0;entryY=0.5;entryDx=0;entryDy=0;fontSize=24;strokeWidth=3;strokeColor=#0066CC;" edge="1" parent="1" source="8V52XcheYK7ap1yZx_XA-81" target="8V52XcheYK7ap1yZx_XA-84">
          <mxGeometry relative="1" as="geometry" />
        </mxCell>
        <mxCell id="8V52XcheYK7ap1yZx_XA-81" value="300k 序列数据" style="whiteSpace=wrap;html=1;rounded=0;fontSize=24;" vertex="1" parent="1">
          <mxGeometry x="925" y="980" width="120" height="60" as="geometry" />
        </mxCell>
        <mxCell id="8V52XcheYK7ap1yZx_XA-82" style="edgeStyle=orthogonalEdgeStyle;curved=1;rounded=0;orthogonalLoop=1;jettySize=auto;html=1;entryX=0.5;entryY=0;entryDx=0;entryDy=0;fontSize=24;" edge="1" parent="1" source="8V52XcheYK7ap1yZx_XA-83" target="8V52XcheYK7ap1yZx_XA-84">
          <mxGeometry relative="1" as="geometry" />
        </mxCell>
        <mxCell id="8V52XcheYK7ap1yZx_XA-83" value="CASP14" style="shape=hexagon;perimeter=hexagonPerimeter2;whiteSpace=wrap;html=1;fixedSize=1;fontSize=24;strokeColor=#33FFFF;strokeWidth=3;" vertex="1" parent="1">
          <mxGeometry x="1260" y="470" width="120" height="80" as="geometry" />
        </mxCell>
        <mxCell id="8V52XcheYK7ap1yZx_XA-84" value="Uni-fold" style="shape=hexagon;perimeter=hexagonPerimeter2;whiteSpace=wrap;html=1;fixedSize=1;fontSize=24;strokeWidth=3;strokeColor=#0066CC;" vertex="1" parent="1">
          <mxGeometry x="1260" y="860" width="120" height="80" as="geometry" />
        </mxCell>
        <mxCell id="8V52XcheYK7ap1yZx_XA-85" style="edgeStyle=orthogonalEdgeStyle;curved=1;rounded=0;orthogonalLoop=1;jettySize=auto;html=1;fontSize=24;" edge="1" parent="1" source="8V52XcheYK7ap1yZx_XA-86" target="8V52XcheYK7ap1yZx_XA-83">
          <mxGeometry relative="1" as="geometry" />
        </mxCell>
        <mxCell id="8V52XcheYK7ap1yZx_XA-86" value="proof of concept" style="shape=hexagon;perimeter=hexagonPerimeter2;whiteSpace=wrap;html=1;fixedSize=1;fontSize=24;strokeColor=#66B2FF;strokeWidth=3;" vertex="1" parent="1">
          <mxGeometry x="1260" y="250" width="120" height="80" as="geometry" />
        </mxCell>
        <mxCell id="8V52XcheYK7ap1yZx_XA-87" style="edgeStyle=orthogonalEdgeStyle;curved=1;rounded=0;orthogonalLoop=1;jettySize=auto;html=1;entryX=0;entryY=0.5;entryDx=0;entryDy=0;fontSize=24;strokeColor=#66B2FF;strokeWidth=3;" edge="1" parent="1">
          <mxGeometry relative="1" as="geometry">
            <mxPoint x="645" y="534" as="sourcePoint" />
            <mxPoint x="1260" y="294" as="targetPoint" />
            <Array as="points">
              <mxPoint x="1150" y="534" />
              <mxPoint x="1150" y="294" />
            </Array>
          </mxGeometry>
        </mxCell>
        <mxCell id="8V52XcheYK7ap1yZx_XA-88" style="edgeStyle=orthogonalEdgeStyle;curved=1;rounded=0;orthogonalLoop=1;jettySize=auto;html=1;entryX=0;entryY=0.5;entryDx=0;entryDy=0;fontSize=24;strokeColor=#66B2FF;strokeWidth=3;" edge="1" parent="1">
          <mxGeometry relative="1" as="geometry">
            <mxPoint x="845" y="458" as="sourcePoint" />
            <mxPoint x="1260" y="294" as="targetPoint" />
            <Array as="points">
              <mxPoint x="1070" y="458" />
              <mxPoint x="1070" y="294" />
            </Array>
          </mxGeometry>
        </mxCell>
        <mxCell id="8V52XcheYK7ap1yZx_XA-89" value="Hermite" style="shape=hexagon;perimeter=hexagonPerimeter2;whiteSpace=wrap;html=1;fixedSize=1;shadow=0;sketch=1;fontSize=24;strokeColor=#000000;strokeWidth=1;fillColor=none;" vertex="1" parent="1">
          <mxGeometry x="1192.5" y="1120" width="120" height="80" as="geometry" />
        </mxCell>
        <mxCell id="8V52XcheYK7ap1yZx_XA-90" style="edgeStyle=orthogonalEdgeStyle;curved=1;rounded=0;sketch=1;orthogonalLoop=1;jettySize=auto;html=1;entryX=0.5;entryY=1;entryDx=0;entryDy=0;fontSize=24;startArrow=classic;startFill=1;strokeColor=default;strokeWidth=2;shape=flexArrow;" edge="1" parent="1" source="8V52XcheYK7ap1yZx_XA-91" target="8V52XcheYK7ap1yZx_XA-89">
          <mxGeometry relative="1" as="geometry" />
        </mxCell>
        <mxCell id="8V52XcheYK7ap1yZx_XA-91" value="Lebesgue" style="shape=hexagon;perimeter=hexagonPerimeter2;whiteSpace=wrap;html=1;fixedSize=1;shadow=0;sketch=1;fontSize=24;strokeColor=#000000;strokeWidth=1;fillColor=none;" vertex="1" parent="1">
          <mxGeometry x="1192.5" y="1325" width="120" height="80" as="geometry" />
        </mxCell>
      </root>
    </mxGraphModel>
  </diagram>
</mxfile>
